<svg width="30" height="31" viewBox="0 0 30 31" fill="none" xmlns="http://www.w3.org/2000/svg">
<path d="M19.2756 17.5579L15.9294 15.0482V9.93588C15.9294 9.42185 15.5139 9.00635 14.9998 9.00635C14.4858 9.00635 14.0703 9.42185 14.0703 9.93588V15.513C14.0703 15.8058 14.2079 16.0819 14.4421 16.2566L18.1602 19.0451C18.3275 19.1706 18.5227 19.2311 18.7169 19.2311C19.0004 19.2311 19.2793 19.1037 19.4615 18.8583C19.7702 18.4483 19.6865 17.8655 19.2756 17.5579Z" fill="#8F7470"/>
<path d="M15 3.43848C8.3828 3.43848 3 8.82127 3 15.4385C3 22.0557 8.3828 27.4385 15 27.4385C21.6172 27.4385 27 22.0557 27 15.4385C27 8.82127 21.6172 3.43848 15 3.43848ZM15 25.5795C9.40898 25.5795 4.85902 21.0295 4.85902 15.4385C4.85902 9.84746 9.40898 5.29749 15 5.29749C20.592 5.29749 25.141 9.84746 25.141 15.4385C25.141 21.0295 20.591 25.5795 15 25.5795Z" fill="#8F7470"/>
</svg>
