<svg width="28" height="28" viewBox="0 0 28 28" fill="none" xmlns="http://www.w3.org/2000/svg">
<g clip-path="url(#clip0_449_463)">
<path d="M23.8984 0H4.10156C1.84015 0 0 1.84015 0 4.10156V23.8984C0 26.1599 1.84015 28 4.10156 28H23.8984C26.1599 28 28 26.1599 28 23.8984V4.10156C28 1.84015 26.1599 0 23.8984 0ZM14.0547 21.3281C9.98367 21.3281 6.67188 18.0163 6.67188 13.9453C6.67188 9.8743 9.98367 6.5625 14.0547 6.5625C18.1257 6.5625 21.4375 9.8743 21.4375 13.9453C21.4375 18.0163 18.1257 21.3281 14.0547 21.3281ZM22.2578 8.20312C20.9009 8.20312 19.7969 7.09912 19.7969 5.74219C19.7969 4.38525 20.9009 3.28125 22.2578 3.28125C23.6147 3.28125 24.7188 4.38525 24.7188 5.74219C24.7188 7.09912 23.6147 8.20312 22.2578 8.20312Z" fill="#8F7470"/>
<path d="M22.2578 4.92188C21.8051 4.92188 21.4375 5.28952 21.4375 5.74219C21.4375 6.19485 21.8051 6.5625 22.2578 6.5625C22.7105 6.5625 23.0781 6.19485 23.0781 5.74219C23.0781 5.28952 22.7105 4.92188 22.2578 4.92188Z" fill="#8F7470"/>
<path d="M14.0547 8.20312C10.8888 8.20312 8.3125 10.7794 8.3125 13.9453C8.3125 17.1112 10.8888 19.6875 14.0547 19.6875C17.2206 19.6875 19.7969 17.1112 19.7969 13.9453C19.7969 10.7794 17.2206 8.20312 14.0547 8.20312Z" fill="#8F7470"/>
</g>
<defs>
<clipPath id="clip0_449_463">
<rect width="28" height="28" fill="white"/>
</clipPath>
</defs>
</svg>
