<svg width="57" height="30" viewBox="0 0 57 30" fill="none" xmlns="http://www.w3.org/2000/svg">
<path fill-rule="evenodd" clip-rule="evenodd" d="M56.0305 16.6248C56.9157 17.6283 57.0799 17.9405 56.9698 18.4116C56.7803 19.2226 56.5054 19.3349 54.6915 19.3419C53.0266 19.3483 52.0348 19.468 50.5014 19.8472C47.8583 20.5011 45.4292 21.6099 39.9905 24.6453C37.1109 26.2525 34.8799 27.4149 33.5382 28.0073C27.376 30.7278 21.8957 30.6622 17.3609 27.8137C16.566 27.3144 16.4455 27.2104 15.1828 25.9351C13.9452 24.6851 13.8048 24.5204 13.2872 23.7109C12.0217 21.732 11.1412 19.4528 10.7721 17.2006C10.6945 16.7273 10.6141 16.3222 10.5933 16.3007C10.5477 16.2533 9.17519 16.7322 7.55124 17.362C6.04098 17.9477 4.35145 18.6838 3.00125 19.3443C1.84238 19.9112 1.45865 19.9695 0.995678 19.6493C0.651507 19.4111 0.529468 19.1546 0.529411 18.669C0.529411 17.9625 0.670832 17.8258 2.12408 17.1271C4.57909 15.9467 6.97539 14.9636 9.31576 14.1766C10.4563 13.7931 10.6789 13.6872 10.625 13.5533C10.5688 13.4136 10.7364 12.0712 10.9287 11.1204C11.2852 9.35847 11.9839 7.6197 12.9344 6.12875C13.5639 5.14135 15.0468 3.55664 16.0179 2.83343C19.4621 0.268684 24.194 -0.575522 29.7419 0.385031C33.7029 1.07087 38.5216 2.96099 42.6566 5.45101C47.4452 8.33451 52.2837 12.377 56.0305 16.6248ZM49.1946 13.1526C46.4021 10.7104 43.4062 8.57123 40.5057 6.94835C40.0269 6.68048 39.6054 6.46118 39.5691 6.46123C39.501 6.46123 33.5593 11.7284 33.5524 11.795C33.5502 11.8156 33.9132 11.8933 34.3589 11.9678C36.6258 12.3464 39.8465 13.106 40.3561 13.3822C40.9728 13.7165 41.0963 14.5261 40.6221 15.1274C40.2256 15.6303 39.9719 15.6504 38.5621 15.2903C37.0995 14.9169 34.4578 14.3508 34.4579 14.4109C34.4578 14.4612 40.9864 20.4969 41.3607 20.7927L41.6189 20.9966L42.756 20.3969C46.2927 18.5315 49.672 17.3683 52.3751 17.0859L53.1165 17.0085L52.8705 16.709C52.5135 16.2744 50.1551 13.9927 49.1946 13.1526ZM36.1005 4.81013C35.1137 4.3813 32.1399 3.35654 31.3961 3.18903C31.1379 3.13086 30.8929 3.13298 30.8023 3.19403C30.5957 3.33337 21.6687 11.4353 21.6687 11.4835C21.6687 11.5042 22.3034 11.4773 23.0793 11.4237C24.6188 11.3174 28.2582 11.3249 29.5445 11.437C30.1645 11.4909 30.3877 11.4731 30.5014 11.3603C30.6198 11.2427 35.8889 6.50521 36.9203 5.58875C37.0949 5.43371 37.1547 5.33714 37.1064 5.28828C37.0673 5.24873 36.6146 5.03351 36.1005 4.81013ZM25.725 2.39006C23.1352 2.39248 21.4174 2.68311 19.7086 3.40816C18.4048 3.96132 17.6412 4.46666 16.5603 5.49142C15.1529 6.82591 14.3857 8.00272 13.7408 9.81656C13.4695 10.5798 13.1334 12.0119 13.0451 12.7815L13.0176 13.0216L13.8243 12.8222C14.268 12.7124 15.2769 12.4847 16.0663 12.3161L17.5017 12.0094L22.6765 7.33182C25.5227 4.75908 27.885 2.62172 27.9261 2.58206C28.082 2.4318 27.5836 2.38834 25.725 2.39006ZM34.9313 18.1499C32.8213 16.2052 30.8926 14.4401 30.6451 14.2274L30.1953 13.8408L28.7783 13.7584C26.8876 13.6486 23.8436 13.6983 22.1103 13.8674C21.3359 13.9429 20.703 14.0226 20.7037 14.0447C20.7045 14.0666 23.4768 16.6362 26.8643 19.7549C30.2519 22.8735 33.0647 25.4648 33.1148 25.5135C33.1818 25.5785 33.591 25.4019 34.6515 24.8507C36.4455 23.9182 39.3187 22.3229 39.3379 22.2487C39.3457 22.2183 39.2206 22.0792 39.0598 21.9395C38.8991 21.7998 37.0412 20.0945 34.9313 18.1499ZM24.3126 20.5168C20.8325 17.3135 17.9242 14.631 17.8498 14.5558C17.7413 14.446 17.5014 14.4592 16.6371 14.6227C16.0445 14.7348 14.988 14.9727 14.2893 15.1513L13.019 15.4762L13.0486 15.9354C13.1747 17.8977 13.9507 20.2742 15.0479 22.0581C16.0891 23.7511 17.5993 25.225 19.2369 26.1465C21.2723 27.2918 23.5325 27.7485 26.2608 27.5657C27.4981 27.4827 29.6559 27.0252 30.539 26.6585C30.8103 26.5458 30.8257 26.5287 30.7366 26.4387C30.6835 26.385 27.7926 23.7201 24.3126 20.5168Z" fill="#8F7470"/>
</svg>
