<svg width="30" height="31" viewBox="0 0 30 31" fill="none" xmlns="http://www.w3.org/2000/svg">
<g clip-path="url(#clip0_105_476)">
<path d="M23.9721 4.15485C21.5756 1.7583 18.3892 0.438477 15 0.438477C11.6108 0.438477 8.42439 1.7583 6.0279 4.15485C3.63135 6.55146 2.31152 9.73779 2.31152 13.1269C2.31152 19.9831 8.79423 25.6858 12.277 28.7494C12.761 29.1751 13.1789 29.5428 13.5119 29.8538C13.9291 30.2435 14.4646 30.4384 15 30.4384C15.5355 30.4384 16.0708 30.2435 16.4881 29.8538C16.8211 29.5428 17.239 29.1751 17.723 28.7494C21.2058 25.6857 27.6885 19.9831 27.6885 13.1269C27.6884 9.73779 26.3686 6.55146 23.9721 4.15485ZM16.5623 27.43C16.0677 27.865 15.6406 28.2408 15.2884 28.5697C15.1266 28.7207 14.8733 28.7207 14.7114 28.5697C14.3594 28.2407 13.9322 27.865 13.4376 27.4299C10.1634 24.5497 4.06875 19.1885 4.06875 13.127C4.06875 7.09955 8.97241 2.19588 14.9999 2.19588C21.0273 2.19588 25.931 7.09955 25.931 13.127C25.9311 19.1885 19.8365 24.5497 16.5623 27.43Z" fill="#8F7470"/>
<path d="M14.9999 7.05615C11.9166 7.05615 9.4082 9.5645 9.4082 12.6478C9.4082 15.731 11.9166 18.2394 14.9999 18.2394C18.0831 18.2394 20.5915 15.731 20.5915 12.6478C20.5915 9.5645 18.0831 7.05615 14.9999 7.05615ZM14.9999 16.482C12.8856 16.482 11.1655 14.7619 11.1655 12.6477C11.1655 10.5335 12.8856 8.81344 14.9999 8.81344C17.1141 8.81344 18.8341 10.5335 18.8341 12.6477C18.8341 14.7619 17.1141 16.482 14.9999 16.482Z" fill="#8F7470"/>
</g>
<defs>
<clipPath id="clip0_105_476">
<rect width="30" height="30" fill="white" transform="translate(0 0.438477)"/>
</clipPath>
</defs>
</svg>
