<svg width="28" height="15" viewBox="0 0 28 15" fill="none" xmlns="http://www.w3.org/2000/svg">
<path fill-rule="evenodd" clip-rule="evenodd" d="M27.5193 8.31238C27.9582 8.81413 28.0396 8.97025 27.985 9.20582C27.8911 9.61131 27.7547 9.66744 26.8553 9.67095C26.0299 9.67417 25.5381 9.73398 24.7778 9.92362C23.4673 10.2505 22.2628 10.8049 19.5661 12.3227C18.1383 13.1262 17.0321 13.7075 16.3669 14.0036C13.3114 15.3639 10.5941 15.3311 8.34561 13.9069C7.95146 13.6572 7.89171 13.6052 7.26564 12.9676C6.65197 12.3425 6.58239 12.2602 6.32572 11.8555C5.69827 10.866 5.26168 9.72639 5.07868 8.60032C5.04021 8.36363 5.0003 8.16111 4.99002 8.15033C4.96741 8.12665 4.28686 8.3661 3.48166 8.68099C2.73282 8.97387 1.89509 9.34188 1.22562 9.67213C0.651011 9.95558 0.460745 9.98475 0.23119 9.82463C0.0605373 9.70555 2.67029e-05 9.57728 -1.90735e-06 9.3345C-1.90735e-06 8.98126 0.0701199 8.91291 0.790689 8.56355C2.00797 7.97334 3.19613 7.4818 4.35656 7.08832C4.92209 6.89656 5.03243 6.84359 5.00574 6.77665C4.97784 6.7068 5.06095 6.03559 5.15633 5.5602C5.33307 4.67923 5.6795 3.80985 6.15081 3.06437C6.46295 2.57067 7.1982 1.77832 7.67972 1.41672C9.38745 0.134342 11.7337 -0.287761 14.4845 0.192515C16.4485 0.535435 18.8378 1.4805 20.8881 2.72551C23.2624 4.16726 25.6615 6.1885 27.5193 8.31238ZM24.1298 6.57628C22.7452 5.35522 21.2598 4.28562 19.8216 3.47418C19.5842 3.34024 19.3752 3.23059 19.3572 3.23062C19.3234 3.23062 16.3773 5.8642 16.3739 5.89749C16.3728 5.90778 16.5528 5.94664 16.7738 5.98389C17.8978 6.17318 19.4947 6.553 19.7474 6.69111C20.0532 6.85827 20.1144 7.26307 19.8793 7.56371C19.6827 7.81517 19.5569 7.82518 18.8579 7.64516C18.1327 7.45843 16.8228 7.17541 16.8229 7.20544C16.8228 7.23059 20.0599 10.2485 20.2455 10.3964L20.3735 10.4983L20.9373 10.1984C22.6909 9.26575 24.3665 8.68416 25.7068 8.54295L26.0744 8.50423L25.9524 8.35449C25.7754 8.1372 24.6061 6.99635 24.1298 6.57628ZM17.6373 2.40506C17.148 2.19065 15.6735 1.67827 15.3047 1.59451C15.1767 1.56543 15.0552 1.56649 15.0103 1.59702C14.9079 1.66669 10.4816 5.71765 10.4816 5.74174C10.4816 5.75208 10.7963 5.73866 11.181 5.71187C11.9443 5.6587 13.7489 5.66244 14.3866 5.71848C14.694 5.74547 14.8047 5.73653 14.8611 5.68014C14.9198 5.62136 17.5324 3.2526 18.0438 2.79437C18.1304 2.71686 18.16 2.66857 18.1361 2.64414C18.1167 2.62436 17.8922 2.51676 17.6373 2.40506ZM12.4928 1.19503C11.2087 1.19624 10.357 1.34156 9.50968 1.70408C8.86323 1.98066 8.48458 2.23333 7.94867 2.74571C7.25082 3.41295 6.8704 4.00136 6.55062 4.90828C6.41611 5.28989 6.24949 6.00596 6.20572 6.39073L6.19208 6.51081L6.59205 6.41108C6.81203 6.35621 7.31229 6.24233 7.70373 6.15803L8.41542 6.00472L10.9813 3.66591C12.3925 2.37954 13.5638 1.31086 13.5842 1.29103C13.6615 1.2159 13.4144 1.19417 12.4928 1.19503ZM17.0576 9.07493C16.0114 8.10259 15.0551 7.22004 14.9324 7.1137L14.7093 6.92038L14.0068 6.87922C13.0693 6.8243 11.56 6.84916 10.7005 6.93369C10.3165 6.97146 10.0027 7.01132 10.0031 7.02233C10.0035 7.03331 11.3781 8.3181 13.0577 9.87743C14.7374 11.4367 16.1321 12.7324 16.1569 12.7568C16.1901 12.7892 16.393 12.701 16.9189 12.4253C17.8084 11.9591 19.233 11.1615 19.2425 11.1243C19.2464 11.1092 19.1844 11.0396 19.1047 10.9698C19.025 10.8999 18.1038 10.0472 17.0576 9.07493ZM11.7925 10.2584C10.0669 8.65676 8.62494 7.31552 8.58805 7.2779C8.53421 7.223 8.41528 7.22962 7.98672 7.31136C7.69288 7.3674 7.16906 7.48634 6.82262 7.57567L6.19278 7.73812L6.20741 7.96768C6.26995 8.94884 6.65474 10.1371 7.19873 11.029C7.71503 11.8756 8.46381 12.6125 9.27578 13.0732C10.285 13.6459 11.4057 13.8742 12.7585 13.7828C13.372 13.7414 14.4419 13.5126 14.8798 13.3292C15.0143 13.2729 15.0219 13.2644 14.9777 13.2193C14.9514 13.1925 13.518 11.8601 11.7925 10.2584Z" fill="#ED2024"/>
</svg>
