<svg width="30" height="31" viewBox="0 0 30 31" fill="none" xmlns="http://www.w3.org/2000/svg">
<g clip-path="url(#clip0_105_483)">
<path d="M6.11305 20.3805C9.07202 23.9175 12.634 26.7025 16.6995 28.673C18.2473 29.4066 20.3174 30.2769 22.6236 30.426C22.7666 30.4323 22.9034 30.4385 23.0463 30.4385C24.5942 30.4385 25.8375 29.9039 26.8507 28.8036C26.8569 28.7974 26.8694 28.7849 26.8756 28.7725C27.2361 28.3374 27.6464 27.9457 28.0753 27.5292C28.3675 27.2495 28.6659 26.9573 28.9519 26.6589C30.2759 25.2789 30.2759 23.5259 28.9394 22.1894L25.2034 18.4534C24.5693 17.7945 23.8109 17.4464 23.0153 17.4464C22.2196 17.4464 21.455 17.7945 20.8022 18.4472L18.5768 20.6726C18.3717 20.5545 18.1603 20.4488 17.9614 20.3494C17.7127 20.225 17.4827 20.1069 17.2776 19.9764C15.2511 18.6896 13.411 17.0112 11.6518 14.8541C10.7629 13.729 10.1661 12.7841 9.74961 11.8206C10.3339 11.2922 10.881 10.7389 11.4094 10.1981C11.5959 10.0054 11.7886 9.8127 11.9813 9.61999C12.6526 8.94863 13.0132 8.17159 13.0132 7.38211C13.0132 6.59264 12.6588 5.8156 11.9813 5.14424L10.1288 3.29177C9.91123 3.0742 9.70609 2.86284 9.49473 2.64527C9.08446 2.22256 8.65553 1.78742 8.23282 1.39579C7.59254 0.767942 6.84036 0.438477 6.04467 0.438477C5.2552 0.438477 4.4968 0.767942 3.83166 1.40201L1.50675 3.72691C0.661328 4.57233 0.18267 5.59803 0.0832087 6.78535C-0.0349016 8.27105 0.238617 9.85 0.947279 11.7584C2.03514 14.7112 3.67625 17.4526 6.11305 20.3805ZM1.59999 6.91589C1.67459 6.08912 1.99162 5.39911 2.58839 4.80234L4.90087 2.48986C5.26141 2.14175 5.65926 1.96148 6.04467 1.96148C6.42387 1.96148 6.80928 2.14175 7.16361 2.5023C7.5801 2.88771 7.97173 3.29177 8.39444 3.7207C8.6058 3.93827 8.82337 4.15584 9.04094 4.37963L10.8934 6.23209C11.2788 6.61751 11.4777 7.00914 11.4777 7.39455C11.4777 7.77996 11.2788 8.17159 10.8934 8.557C10.7007 8.74971 10.508 8.94863 10.3153 9.14134C9.73717 9.72567 9.19635 10.2789 8.59958 10.8073C8.58715 10.8197 8.58093 10.826 8.5685 10.8384C8.05255 11.3543 8.13336 11.8454 8.25768 12.2184C8.2639 12.2371 8.27012 12.2495 8.27633 12.2681C8.75499 13.4182 9.42014 14.5122 10.4583 15.8177C12.3232 18.1177 14.2875 19.9018 16.4508 21.2756C16.7181 21.4497 17.0041 21.5864 17.2714 21.7232C17.52 21.8475 17.75 21.9656 17.9552 22.0962C17.98 22.1086 17.9987 22.121 18.0235 22.1335C18.2287 22.2391 18.4276 22.2889 18.6265 22.2889C19.1238 22.2889 19.4471 21.9718 19.5528 21.8662L21.8777 19.5413C22.2382 19.1807 22.6298 18.988 23.0153 18.988C23.4877 18.988 23.8731 19.2802 24.1155 19.5413L27.864 23.2835C28.61 24.0294 28.6037 24.8376 27.8453 25.627C27.5843 25.9068 27.3107 26.1741 27.0186 26.4538C26.5834 26.8765 26.1296 27.3117 25.7194 27.8028C25.0045 28.5736 24.1528 28.9341 23.0526 28.9341C22.9469 28.9341 22.835 28.9279 22.7293 28.9217C20.6903 28.7912 18.7944 27.9955 17.3708 27.3179C13.5043 25.4468 10.1102 22.7924 7.29415 19.4231C4.97546 16.632 3.41516 14.0336 2.38325 11.2487C1.74297 9.53918 1.50053 8.16537 1.59999 6.91589Z" fill="#8F7470"/>
</g>
<defs>
<clipPath id="clip0_105_483">
<rect width="30" height="30" fill="white" transform="translate(0 0.438477)"/>
</clipPath>
</defs>
</svg>
