<svg width="28" height="28" viewBox="0 0 28 28" fill="none" xmlns="http://www.w3.org/2000/svg">
<g clip-path="url(#clip0_449_461)">
<path d="M0 0V28H28V0H0ZM20.4237 15.6027L22.8555 18.3969C23.1663 18.7541 22.9126 19.3113 22.439 19.3113H19.6949C19.2612 19.3113 18.8436 19.1471 18.526 18.8519L17.7134 18.0962C16.7963 17.2938 16.4065 17.0186 16.0397 17.0186C15.6729 17.0186 15.5812 17.2937 15.5812 18.0045C15.5812 18.7151 15.4436 19.3113 13.3344 19.3113C11.2252 19.3113 9.57449 17.7294 7.71749 15.2763C5.86049 12.8233 5.03515 10.1867 5.03515 10.1867C4.93269 9.85672 5.17938 9.52187 5.52495 9.52187H7.72095C8.13864 9.52187 8.51906 9.76326 8.69422 10.1424C8.87399 10.5316 9.18322 11.1322 9.71214 12.0208C10.4627 13.2817 11.1838 13.8497 11.5922 14.0916C11.7443 14.1817 11.9361 14.0703 11.9361 13.8936V10.8691C11.9361 10.4733 11.7931 10.0909 11.5334 9.79233L11.2238 9.43637C11.1437 9.34429 11.2091 9.20087 11.3311 9.20087H14.8017C15.3336 9.20087 15.7646 9.63195 15.7646 10.1638V13.681C15.7646 13.9076 16.0587 13.9962 16.1839 13.8075L18.6819 10.0428C18.8789 9.74606 19.2114 9.56756 19.5675 9.56756H22.4997C22.9005 9.56756 23.1442 10.0089 22.9308 10.3481L20.3362 14.4721C20.1129 14.8271 20.1484 15.2864 20.4237 15.6027Z" fill="#8F7470"/>
</g>
<defs>
<clipPath id="clip0_449_461">
<rect width="28" height="28" rx="3" fill="white"/>
</clipPath>
</defs>
</svg>
