<svg width="57" height="30" viewBox="0 0 57 30" fill="none" xmlns="http://www.w3.org/2000/svg">
<path fill-rule="evenodd" clip-rule="evenodd" d="M55.5012 16.6248C56.3864 17.6283 56.5506 17.9405 56.4405 18.4116C56.251 19.2226 55.9761 19.3349 54.1622 19.3419C52.4973 19.3483 51.5055 19.468 49.9721 19.8472C47.329 20.5011 44.9 21.6099 39.4612 24.6453C36.5816 26.2525 34.3506 27.4149 33.0089 28.0073C26.8467 30.7278 21.3664 30.6622 16.8316 27.8137C16.0367 27.3144 15.9162 27.2104 14.6535 25.9351C13.4159 24.6851 13.2755 24.5204 12.7579 23.7109C11.4924 21.732 10.6119 19.4528 10.2428 17.2006C10.1652 16.7273 10.0848 16.3222 10.064 16.3007C10.0184 16.2533 8.64589 16.7322 7.02195 17.362C5.51168 17.9477 3.82215 18.6838 2.47195 19.3443C1.31308 19.9112 0.929348 19.9695 0.466381 19.6493C0.122211 19.4111 0.000171661 19.1546 0.000114441 18.669C0.000114441 17.9625 0.141537 17.8258 1.59478 17.1271C4.0498 15.9467 6.44609 14.9636 8.78646 14.1766C9.92703 13.7931 10.1496 13.6872 10.0957 13.5533C10.0395 13.4136 10.2071 12.0712 10.3994 11.1204C10.7559 9.35847 11.4546 7.6197 12.4051 6.12875C13.0346 5.14135 14.5175 3.55664 15.4886 2.83343C18.9328 0.268684 23.6647 -0.575522 29.2126 0.385031C33.1736 1.07087 37.9923 2.96099 42.1273 5.45101C46.9159 8.33451 51.7544 12.377 55.5012 16.6248ZM48.6653 13.1526C45.8728 10.7104 42.8769 8.57123 39.9765 6.94835C39.4976 6.68048 39.0761 6.46118 39.0398 6.46123C38.9717 6.46123 33.03 11.7284 33.0231 11.795C33.0209 11.8156 33.3839 11.8933 33.8296 11.9678C36.0966 12.3464 39.3172 13.106 39.8268 13.3822C40.4435 13.7165 40.567 14.5261 40.0928 15.1274C39.6963 15.6303 39.4426 15.6504 38.0328 15.2903C36.5702 14.9169 33.9285 14.3508 33.9286 14.4109C33.9285 14.4612 40.4571 20.4969 40.8315 20.7927L41.0896 20.9966L42.2267 20.3969C45.7634 18.5315 49.1427 17.3683 51.8458 17.0859L52.5872 17.0085L52.3412 16.709C51.9842 16.2744 49.6258 13.9927 48.6653 13.1526ZM35.5712 4.81013C34.5844 4.3813 31.6106 3.35654 30.8668 3.18903C30.6086 3.13086 30.3636 3.13298 30.273 3.19403C30.0664 3.33337 21.1394 11.4353 21.1394 11.4835C21.1394 11.5042 21.7741 11.4773 22.55 11.4237C24.0895 11.3174 27.7289 11.3249 29.0152 11.437C29.6352 11.4909 29.8584 11.4731 29.9721 11.3603C30.0905 11.2427 35.3596 6.50521 36.391 5.58875C36.5656 5.43371 36.6254 5.33714 36.5771 5.28828C36.538 5.24873 36.0853 5.03351 35.5712 4.81013ZM25.1957 2.39006C22.6059 2.39248 20.8881 2.68311 19.1793 3.40816C17.8755 3.96132 17.1119 4.46666 16.0311 5.49142C14.6236 6.82591 13.8564 8.00272 13.2115 9.81656C12.9402 10.5798 12.6041 12.0119 12.5158 12.7815L12.4883 13.0216L13.295 12.8222C13.7387 12.7124 14.7476 12.4847 15.537 12.3161L16.9724 12.0094L22.1472 7.33182C24.9934 4.75908 27.3557 2.62172 27.3968 2.58206C27.5527 2.4318 27.0543 2.38834 25.1957 2.39006ZM34.402 18.1499C32.292 16.2052 30.3633 14.4401 30.1158 14.2274L29.666 13.8408L28.249 13.7584C26.3584 13.6486 23.3144 13.6983 21.581 13.8674C20.8066 13.9429 20.1737 14.0226 20.1744 14.0447C20.1752 14.0666 22.9475 16.6362 26.335 19.7549C29.7226 22.8735 32.5354 25.4648 32.5856 25.5135C32.6525 25.5785 33.0617 25.4019 34.1222 24.8507C35.9162 23.9182 38.7894 22.3229 38.8086 22.2487C38.8164 22.2183 38.6913 22.0792 38.5305 21.9395C38.3698 21.7998 36.5119 20.0945 34.402 18.1499ZM23.7833 20.5168C20.3032 17.3135 17.3949 14.631 17.3205 14.5558C17.212 14.446 16.9721 14.4592 16.1078 14.6227C15.5152 14.7348 14.4587 14.9727 13.76 15.1513L12.4898 15.4762L12.5193 15.9354C12.6454 17.8977 13.4214 20.2742 14.5186 22.0581C15.5598 23.7511 17.07 25.225 18.7076 26.1465C20.743 27.2918 23.0032 27.7485 25.7315 27.5657C26.9688 27.4827 29.1266 27.0252 30.0098 26.6585C30.281 26.5458 30.2964 26.5287 30.2073 26.4387C30.1542 26.385 27.2633 23.7201 23.7833 20.5168Z" fill="#230000"/>
</svg>
