<svg width="57" height="30" viewBox="0 0 57 30" fill="none" xmlns="http://www.w3.org/2000/svg">
<path fill-rule="evenodd" clip-rule="evenodd" d="M0.969482 16.6248C0.0842991 17.6283 -0.0798574 17.9405 0.0301865 18.4116C0.219694 19.2226 0.494633 19.3349 2.30854 19.3419C3.97341 19.3483 4.96522 19.468 6.49856 19.8472C9.14166 20.5011 11.5708 21.6099 17.0095 24.6453C19.8891 26.2525 22.1201 27.4149 23.4618 28.0073C29.624 30.7278 35.1043 30.6622 39.6391 27.8137C40.434 27.3144 40.5545 27.2104 41.8172 25.9351C43.0548 24.6851 43.1952 24.5204 43.7128 23.7109C44.9783 21.732 45.8588 19.4528 46.2279 17.2006C46.3055 16.7273 46.3859 16.3222 46.4067 16.3007C46.4523 16.2533 47.8248 16.7322 49.4488 17.362C50.959 17.9477 52.6486 18.6838 53.9988 19.3443C55.1576 19.9112 55.5414 19.9695 56.0043 19.6493C56.3485 19.4111 56.4705 19.1546 56.4706 18.669C56.4706 17.9625 56.3292 17.8258 54.8759 17.1271C52.4209 15.9467 50.0246 14.9636 47.6842 14.1766C46.5437 13.7931 46.3211 13.6872 46.375 13.5533C46.4312 13.4136 46.2636 12.0712 46.0713 11.1204C45.7148 9.35847 45.0161 7.6197 44.0656 6.12875C43.4361 5.14135 41.9532 3.55664 40.9821 2.83343C37.5379 0.268684 32.806 -0.575522 27.2581 0.385031C23.2971 1.07087 18.4784 2.96099 14.3434 5.45101C9.55478 8.33451 4.71626 12.377 0.969482 16.6248ZM7.80545 13.1526C10.5979 10.7104 13.5938 8.57123 16.4943 6.94835C16.9731 6.68048 17.3946 6.46118 17.4309 6.46123C17.499 6.46123 23.4407 11.7284 23.4476 11.795C23.4498 11.8156 23.0868 11.8933 22.6411 11.9678C20.3742 12.3464 17.1535 13.106 16.6439 13.3822C16.0272 13.7165 15.9037 14.5261 16.3779 15.1274C16.7744 15.6303 17.0281 15.6504 18.4379 15.2903C19.9005 14.9169 22.5422 14.3508 22.5421 14.4109C22.5422 14.4612 16.0136 20.4969 15.6393 20.7927L15.3811 20.9966L14.244 20.3969C10.7073 18.5315 7.32798 17.3683 4.62492 17.0859L3.88354 17.0085L4.12955 16.709C4.48651 16.2744 6.84489 13.9927 7.80545 13.1526ZM20.8995 4.81013C21.8863 4.3813 24.8601 3.35654 25.6039 3.18903C25.8621 3.13086 26.1071 3.13298 26.1977 3.19403C26.4043 3.33337 35.3313 11.4353 35.3313 11.4835C35.3313 11.5042 34.6966 11.4773 33.9207 11.4237C32.3812 11.3174 28.7418 11.3249 27.4555 11.437C26.8355 11.4909 26.6123 11.4731 26.4986 11.3603C26.3802 11.2427 21.1111 6.50521 20.0797 5.58875C19.9051 5.43371 19.8453 5.33714 19.8936 5.28828C19.9327 5.24873 20.3854 5.03351 20.8995 4.81013ZM31.275 2.39006C33.8648 2.39248 35.5826 2.68311 37.2914 3.40816C38.5952 3.96132 39.3588 4.46666 40.4397 5.49142C41.8471 6.82591 42.6143 8.00272 43.2592 9.81656C43.5305 10.5798 43.8666 12.0119 43.9549 12.7815L43.9824 13.0216L43.1757 12.8222C42.732 12.7124 41.7231 12.4847 40.9337 12.3161L39.4983 12.0094L34.3235 7.33182C31.4773 4.75908 29.115 2.62172 29.0739 2.58206C28.918 2.4318 29.4164 2.38834 31.275 2.39006ZM22.0687 18.1499C24.1787 16.2052 26.1074 14.4401 26.3549 14.2274L26.8047 13.8408L28.2217 13.7584C30.1124 13.6486 33.1563 13.6983 34.8897 13.8674C35.6641 13.9429 36.297 14.0226 36.2963 14.0447C36.2955 14.0666 33.5232 16.6362 30.1357 19.7549C26.7481 22.8735 23.9353 25.4648 23.8852 25.5135C23.8182 25.5785 23.409 25.4019 22.3485 24.8507C20.5545 23.9182 17.6813 22.3229 17.6621 22.2487C17.6543 22.2183 17.7794 22.0792 17.9402 21.9395C18.1009 21.7998 19.9588 20.0945 22.0687 18.1499ZM32.6874 20.5168C36.1675 17.3135 39.0758 14.631 39.1502 14.5558C39.2587 14.446 39.4986 14.4592 40.3629 14.6227C40.9555 14.7348 42.012 14.9727 42.7107 15.1513L43.9809 15.4762L43.9515 15.9354C43.8253 17.8977 43.0493 20.2742 41.9521 22.0581C40.9109 23.7511 39.4007 25.225 37.7631 26.1465C35.7277 27.2918 33.4675 27.7485 30.7392 27.5657C29.5019 27.4827 27.3441 27.0252 26.461 26.6585C26.1897 26.5458 26.1743 26.5287 26.2634 26.4387C26.3165 26.385 29.2074 23.7201 32.6874 20.5168Z" fill="#230000"/>
</svg>
